# xmcd
#
# Track frame offsets:
#	150
#	18342
#	46099
#	62980
#	85839
#	107822
#	137306
#	161608
#
# Disc length: 2448 seconds
#
# Revision: 0
# Processed by: cddbd v1.5.1PL2 Copyright (c) Steve Scherf et al.
# Submitted via: dBpowerAMP V4.0
#
DISCID=5c098e08
DTITLE=EB Davis - I Write The Checks
DYEAR=2001
DGENRE=Blues
TTITLE0=The Weaker Sex
TTITLE1=Glamour Girl
TTITLE2=Come Back Baby
TTITLE3=Havin' Myself A Ball
TTITLE4=Drivin' Wheel
TTITLE5=Ain't Nobody's Business
TTITLE6=Night Time Is The Right Time
TTITLE7=Woke Up This Morning
EXTD=2001 recorded in Czech Republic at Blues Alive Festival
EXTT0=
EXTT1=
EXTT2=
EXTT3=
EXTT4=
EXTT5=
EXTT6=
EXTT7=
PLAYORDER=
